<?xml version="1.0" standalone="no"?>
<!DOCTYPE svg PUBLIC "-//W3C//DTD SVG 1.1//EN" "http://www.w3.org/Graphics/SVG/1.1/DTD/svg11.dtd" >
<svg xmlns="http://www.w3.org/2000/svg" xmlns:xlink="http://www.w3.org/1999/xlink" version="1.1" viewBox="-10 0 2010 2048">
  <g transform="matrix(1 0 0 -1 0 1638)">
   <path fill="currentColor"
d="M1757 595q0 -152 -59 -294q-36 -85 -93 -160v-12h-8q-32 -40 -61 -68q-106 -106 -242 -162q-139 -61 -294 -61t-294 61q-136 56 -242 162q-104 104 -162 240q-59 142 -59 294q0 154 59 296q60 136 162 240q106 106 242 162q134 59 294 59t294 -59q136 -56 242 -162
q62 -62 112 -144l10 -5v-11q14 -26 40 -80q59 -142 59 -296zM742 -13q124 -53 258 -53v1322l123 -11q-56 11 -123 11q-133 0 -258 -51q-123 -55 -209 -141q-88 -88 -143 -211q-51 -122 -51 -258q0 -133 51 -258q55 -124 143 -209q86 -90 209 -141z" />
  </g>

</svg>
