<?xml version="1.0" standalone="no"?>
<!DOCTYPE svg PUBLIC "-//W3C//DTD SVG 1.1//EN" "http://www.w3.org/Graphics/SVG/1.1/DTD/svg11.dtd" >
<svg xmlns="http://www.w3.org/2000/svg" xmlns:xlink="http://www.w3.org/1999/xlink" version="1.1" viewBox="-10 0 2010 2048">
  <g transform="matrix(1 0 0 -1 0 1638)">
   <path fill="currentColor"
d="M1436 797q37 -89 37 -185q0 -95 -37 -184q-36 -85 -101 -150q-66 -66 -151 -101q-87 -38 -184 -38t-184 38q-85 35 -151 101q-65 65 -101 150q-37 89 -37 184q0 96 37 185q37 85 101 150q66 66 151 101q84 37 184 37t184 -37q85 -35 151 -101q64 -65 101 -150zM1381 451
q32 78 32 161q0 85 -32 161q-34 77 -89 132q-54 54 -131 88q-76 32 -161 32q-83 0 -161 -32q-77 -34 -131 -88q-55 -55 -89 -132q-32 -76 -32 -161q0 -83 32 -161q34 -78 89 -131q54 -56 131 -88q77 -33 161 -33q86 0 161 33q77 32 131 88q55 53 89 131z" />
  </g>

</svg>
