<?xml version="1.0" standalone="no"?>
<!DOCTYPE svg PUBLIC "-//W3C//DTD SVG 1.1//EN" "http://www.w3.org/Graphics/SVG/1.1/DTD/svg11.dtd" >
<svg xmlns="http://www.w3.org/2000/svg" xmlns:xlink="http://www.w3.org/1999/xlink" version="1.1" viewBox="-10 0 2010 2048">
  <g transform="matrix(1 0 0 -1 0 1638)">
   <path fill="currentColor"
d="M1714 401l-121 -11q-37 -106 -106 -189q-70 -85 -161 -141l62 -83l-88 66q-59 -35 -128 -58q-62 -19 -141 -30v-99l-141 -40v139q-126 14 -236 72q-109 57 -192 147q-82 91 -130 206q-46 117 -46 248q0 136 49 252q47 116 135 209q80 88 200 147q116 58 246 64l10 288h70
l10 -288q129 -6 248 -64q120 -59 200 -147q88 -93 134 -209q50 -116 50 -252q0 -113 -34 -209zM887 537l26 687q-117 -10 -216 -60q-95 -46 -173 -129q-75 -80 -118 -186q-44 -104 -44 -221q0 -115 42 -217q42 -104 112 -184q67 -77 168 -130q98 -51 206 -65v233l-8 35
l-232 -118l159 227l-365 247zM1116 499l411 -67q35 91 35 196q0 120 -43 223q-43 105 -117 184q-73 81 -176 129q-99 50 -217 60l24 -629l313 230zM1110 350l171 -230q77 49 133 115q60 69 96 147zM1031 249v-217q63 8 104 22q48 13 98 40z" />
  </g>

</svg>
