<?xml version="1.0" standalone="no"?>
<!DOCTYPE svg PUBLIC "-//W3C//DTD SVG 1.1//EN" "http://www.w3.org/Graphics/SVG/1.1/DTD/svg11.dtd" >
<svg xmlns="http://www.w3.org/2000/svg" xmlns:xlink="http://www.w3.org/1999/xlink" version="1.1" viewBox="-10 0 2010 2048">
  <g transform="matrix(1 0 0 -1 0 1638)">
   <path fill="currentColor"
d="M1781 1121q-91 -67 -175 -146q69 -137 69 -299q0 -269 -184.5 -464t-452.5 -210q-27 -115 -38 -232q-11 117 -38 232q-268 15 -452.5 210t-184.5 464q0 160 69 301q-76 72 -175 144q109 -48 211 -80q92 142 243 227t327 85t327 -84t243 -228q118 37 211 80zM1000 1276
q-150 0 -280 -69.5t-213 -188.5q34 -9 88 -20q191 -45 405 -45q211 0 405 43q30 6 88 22q-82 119 -212.5 188.5t-280.5 69.5zM400 676q0 -234 157 -404t385 -193q-1 7 -11.5 41t-16.5 52q-66 195 -165 365q-101 168 -235 320l-63 64q-51 -120 -51 -245zM1058 79
q228 23 385 193t157 404q0 125 -51 243q-42 -41 -63 -64q-134 -152 -235 -320q-97 -166 -165 -363q-6 -18 -16.5 -52t-11.5 -41z" />
  </g>

</svg>
