<?xml version="1.0" standalone="no"?>
<!DOCTYPE svg PUBLIC "-//W3C//DTD SVG 1.1//EN" "http://www.w3.org/Graphics/SVG/1.1/DTD/svg11.dtd" >
<svg xmlns="http://www.w3.org/2000/svg" xmlns:xlink="http://www.w3.org/1999/xlink" version="1.1" viewBox="-10 0 2010 2048">
  <g transform="matrix(1 0 0 -1 0 1638)">
   <path fill="currentColor"
d="M1658 510l24 8q30 15 54 29q35 23 72 59q42 44 77 104l3 -27v-56q-10 -70 -42 -128q-28 -54 -72 -99q-36 -40 -83 -72q-40 -27 -80 -48q-53 -24 -61 -26l-25 -9l-16 -11l-3 -21l17 -15l42 -14q29 -5 56 -3q29 0 64 13q-8 -8 -47 -44q-33 -30 -67 -56q-27 -22 -89 -60
q-47 -31 -109 -58q-58 -26 -123 -45q-48 -14 -117 -30q-63 -11 -90 -11q-33 -2 -40 6v3h-6l-2 -3q-6 -8 -40 -6q-29 0 -89 11q-69 16 -117 30q-66 19 -123 45q-63 29 -108 58q-60 38 -91 60q-33 26 -67 56q-38 36 -46 44q35 -13 64 -13q28 -2 57 3l42 14l17 15l-4 21l-15 11
l-25 9q-8 2 -61 26q-40 21 -80 48q-47 32 -83 72q-42 45 -72 98q-32 59 -42 129v56l3 27q35 -60 77 -104q37 -36 72 -59q21 -14 53 -29l25 -8l26 13l2 31q-20 35 -31 52q-6 10 -19 29t-18 26q-48 62 -57 157q-13 94 19 190q21 67 62 118q39 47 95 88q57 40 113 64
q53 24 122 48h13q-67 -40 -103 -88q-36 -49 -48 -94q-12 -48 -4 -96q8 -56 24 -90q38 -102 137 -203q-70 -117 -80 -216q-9 -102 21 -187q29 -86 83 -154q58 -70 114 -116q57 -48 109 -80q56 -32 68 -39h18q13 7 69 39q51 30 110 80q56 46 114 116q54 68 83 154t19 186
q-9 97 -80 217q99 101 138 203q16 34 24 90q7 48 -5 96q-11 45 -48 94q-35 48 -102 88h14q60 -21 120 -48q56 -24 114 -64q56 -41 94 -88q42 -51 62 -118q32 -94 20 -189q-10 -94 -56 -158q-5 -7 -18 -26t-19 -29q-13 -17 -32 -52l3 -31zM1067 866q-27 -13 -67 -13t-67 13
q-32 14 -56 38q-26 26 -37 58q-14 32 -14 68.5t14 68.5q10 29 37 58q24 24 56 38q33 13 67 13t67 -13q32 -14 56 -38q27 -29 37 -58q14 -32 14 -68.5t-14 -68.5q-11 -32 -37 -58q-24 -24 -56 -38z" />
  </g>

</svg>
