<?xml version="1.0" standalone="no"?>
<!DOCTYPE svg PUBLIC "-//W3C//DTD SVG 1.1//EN" "http://www.w3.org/Graphics/SVG/1.1/DTD/svg11.dtd" >
<svg xmlns="http://www.w3.org/2000/svg" xmlns:xlink="http://www.w3.org/1999/xlink" version="1.1" viewBox="-10 0 2010 2048">
  <g transform="matrix(1 0 0 -1 0 1638)">
   <path fill="currentColor"
d="M1380 804q32 -74 32 -161q0 -88 -32 -161q-30 -74 -88 -131q-56 -56 -132 -89q-76 -32 -160 -32t-160 32q-78 34 -132 89q-58 57 -88 131q-32 76 -32 161q0 83 32 161q30 74 88 131q54 55 132 89q76 32 160 32t160 -32q76 -33 132 -89q58 -57 88 -131z" />
  </g>

</svg>
