<?xml version="1.0" standalone="no"?>
<!DOCTYPE svg PUBLIC "-//W3C//DTD SVG 1.1//EN" "http://www.w3.org/Graphics/SVG/1.1/DTD/svg11.dtd" >
<svg xmlns="http://www.w3.org/2000/svg" xmlns:xlink="http://www.w3.org/1999/xlink" version="1.1" viewBox="-10 0 2010 2048">
  <g transform="matrix(1 0 0 -1 0 1638)">
   <path fill="currentColor"
d="M1635 1067l-264 -370l365 -221l-413 -65l79 -495l-372 368l-387 -398l85 520l-419 69l409 216l-454 497l637 -304l129 533l170 -469zM1186 505l224 35l-205 124l147 206l-229 -62l-75 208l-70 -284l-266 127l181 -199l-240 -128l214 -33l-43 -263l206 210l197 -195z" />
  </g>

</svg>
